<svg xmlns="http://www.w3.org/2000/svg" xml:space="preserve" style="enable-background:new 0 0 300 180" viewBox="0 0 300 180">
  <path d="M298.03 90.5a88.6 88.6 0 0 1-88.58 88.63 88.6 88.6 0 0 1-88.63-88.58v-.05a88.6 88.6 0 1 1 177.21-.04v.04z" style="fill:#f90"/>
  <path d="M90 1.9C41.35 2.2 1.97 41.78 1.97 90.5c0 48.9 39.7 88.6 88.6 88.6a88.27 88.27 0 0 0 59.63-23.08h-.01.02a89.44 89.44 0 0 0 9-9.5h-18.16a86.54 86.54 0 0 1-6.6-9.12h31.3a88.75 88.75 0 0 0 5.16-9.49h-41.63a87.4 87.4 0 0 1-3.7-9.3h49.04a88.8 88.8 0 0 0 2.52-47.08h-54.17a88.35 88.35 0 0 1 2.53-9.31h49.06a88.62 88.62 0 0 0-3.82-9.49h-41.47c1.5-3.2 3.2-6.3 5.08-9.3h31.29a88.8 88.8 0 0 0-6.88-9.5h-17.44a82.23 82.23 0 0 1 8.89-8.95A88.29 88.29 0 0 0 90.57 1.9H90z" style="fill:#c00"/>
  <path d="M289.14 136.82c.48 0 .95.13 1.41.37a2.9 2.9 0 0 1 1.07 3.92c-.24.46-.6.81-1.05 1.07a2.91 2.91 0 0 1-2.85 0 2.9 2.9 0 0 1-1.06-3.92c.26-.47.61-.82 1.07-1.07.46-.25.93-.37 1.41-.37m0 .47c-.4 0-.79.1-1.17.32a2.38 2.38 0 0 0 1.17 4.47 2.4 2.4 0 0 0 2.07-1.2 2.42 2.42 0 0 0 0-2.39 2.4 2.4 0 0 0-2.06-1.2m-1.26 3.98v-3.08h1.06c.36 0 .62.03.78.09.16.05.3.15.4.3.09.13.13.28.13.44 0 .23-.08.43-.24.6a.95.95 0 0 1-.64.27c.11.05.2.1.27.17.12.12.27.32.45.6l.38.61h-.6l-.28-.48a2.49 2.49 0 0 0-.52-.72.65.65 0 0 0-.4-.1h-.3v1.3h-.5m.5-1.74h.6c.3 0 .5-.04.6-.12.1-.1.16-.2.16-.35a.4.4 0 0 0-.08-.24.47.47 0 0 0-.21-.16 1.55 1.55 0 0 0-.5-.06h-.56v.93" style="fill:#fcb340"/>
  <path d="m133.72 99.93 1.18-8.02c-.65 0-1.6.28-2.43.28-3.29 0-3.7-1.76-3.44-3.04l3.24-16.13h4.99l1.03-9.1h-4.7l.95-5.52h-9.84c-.2.2-5.57 31.02-5.57 34.78 0 5.55 3.12 8.02 7.52 7.98 3.44-.03 6.12-.98 7.07-1.23zM136.7 84.64c0 13.33 8.8 16.5 16.3 16.5 6.92 0 10.55-1.6 10.55-1.6l1.66-9.1s-5.84 2.37-10.6 2.37c-10.13 0-8.35-7.55-8.35-7.55l19.46.06s1.24-6.11 1.24-8.6c0-6.22-3.39-13.86-13.74-13.86-9.49 0-16.51 10.23-16.51 21.78zm16.55-13.33c5.33 0 4.34 5.99 4.34 6.47h-10.47c0-.62.99-6.47 6.13-6.47zM212.99 99.92l1.69-10.28s-4.63 2.32-7.8 2.32c-6.7 0-9.39-5.11-9.39-10.6 0-11.14 5.76-17.27 12.17-17.27 4.81 0 8.67 2.7 8.67 2.7l1.54-9.99s-4.56-3.29-9.46-3.3c-14.74-.07-23.18 10.2-23.18 27.95 0 11.76 6.25 19.76 17.5 19.76 3.19 0 8.26-1.29 8.26-1.29zM81.83 63.01c-6.47 0-11.43 2.08-11.43 2.08l-1.37 8.13s4.1-1.67 10.28-1.67c3.52 0 6.09.4 6.09 3.25 0 1.74-.32 2.38-.32 2.38s-2.77-.23-4.05-.23c-9.21 0-16.73 3.48-16.73 13.98 0 8.27 5.62 10.17 9.1 10.17 6.66 0 9.3-4.2 9.45-4.22l-.08 3.5h8.31l3.7-25.99c0-11.02-9.61-11.38-12.95-11.38zm1.44 21.1c.18 1.58-.41 9.08-6.1 9.08-2.92 0-3.68-2.24-3.68-3.56 0-2.58 1.4-5.68 8.31-5.68 1.61 0 1.2.11 1.47.16zM103.61 100.9c2.13 0 14.28.55 14.28-11.99 0-11.72-11.25-9.4-11.25-14.11 0-2.34 1.84-3.08 5.19-3.08 1.33 0 6.44.42 6.44.42l1.2-8.33s-3.32-.74-8.71-.74c-6.98 0-14.06 2.79-14.06 12.32 0 10.8 11.8 9.72 11.8 14.27 0 3.03-3.3 3.28-5.84 3.28-4.4 0-8.36-1.5-8.37-1.44l-1.26 8.25c.23.07 2.67 1.16 10.58 1.16zM290.8 55.45l-1.7 12.71s-3.55-4.9-9.11-4.9c-10.46 0-15.85 10.42-15.85 22.4 0 7.73 3.85 15.3 11.7 15.3 5.65 0 8.78-3.94 8.78-3.94l-.41 3.37h9.18l7.2-44.87-9.78-.07zm-4.05 24.7c0 4.99-2.46 11.65-7.58 11.65-3.4 0-4.98-2.85-4.98-7.33 0-7.31 3.28-12.14 7.43-12.14 3.4 0 5.13 2.33 5.13 7.83zM30.75 100.42l5.74-33.87.85 33.87h6.5l12.12-33.87-5.37 33.87h9.66l7.43-44.92-15.34-.12-9.12 27.5-.25-27.38H28.9l-7.55 44.92h9.39z" style="fill:#006" transform="translate(-13.74 16)"/>
  <path d="M176.1 100.49c2.75-15.62 3.73-27.95 11.73-25.4 1.15-6.04 3.9-11.3 5.15-13.85 0 0-.4-.6-2.87-.6-4.23 0-9.87 8.58-9.87 8.58l.84-5.3h-8.78l-5.89 36.57h9.7z" style="fill:#006" transform="translate(-13.74 16)"/>
  <path d="M-612.55 63.01a32.59 32.59 0 0 0-11.43 2.08l-1.37 8.13s4.1-1.67 10.28-1.67c3.52 0 6.08.4 6.08 3.25 0 1.74-.3 2.38-.3 2.38s-2.78-.23-4.06-.23c-9.21 0-16.73 3.48-16.73 13.98 0 8.27 5.62 10.17 9.1 10.17 6.66 0 9.3-4.2 9.45-4.22l-.08 3.5h8.3l3.71-25.99c0-11.02-9.61-11.38-12.95-11.38zm1.44 21.1c.18 1.58-.42 9.08-6.1 9.08-2.93 0-3.69-2.24-3.69-3.56 0-2.58 1.4-5.68 8.32-5.68 1.6 0 1.2.11 1.47.16z" style="fill:#006" transform="translate(831.56 16)"/>
  <path d="M255.27 100.49c1.5-11.5 4.3-27.62 11.73-25.4 1.15-6.04.04-6.02-2.44-6.02-4.22 0-5.16.15-5.16.15l.84-5.3h-8.78l-5.88 36.57h9.69z" style="fill:#006" transform="translate(-13.74 16)"/>
  <path d="m122.43 113.06 1.18-8.02c-.64 0-1.59.28-2.43.28-3.28 0-3.64-1.75-3.43-3.04l2.65-16.36h5l1.2-8.87h-4.71l.96-5.52h-9.44c-.2.2-5.56 31.02-5.56 34.78 0 5.55 3.11 8.02 7.51 7.98 3.45-.02 6.13-.98 7.07-1.23zM125.42 97.77c0 13.33 8.8 16.5 16.3 16.5 6.92 0 9.96-1.55 9.96-1.55l1.67-9.1s-5.27 2.32-10.02 2.32c-10.13 0-8.36-7.55-8.36-7.55h19.18s1.23-6.11 1.23-8.6c0-6.22-3.1-13.8-13.45-13.8-9.49 0-16.5 10.23-16.5 21.78zm16.55-13.33c5.32 0 4.34 5.99 4.34 6.47h-10.47c0-.62.98-6.47 6.13-6.47zM201.7 113.06l1.7-10.29s-4.63 2.32-7.81 2.32c-6.7 0-9.38-5.1-9.38-10.6 0-11.14 5.76-17.26 12.17-17.26 4.8 0 8.67 2.7 8.67 2.7l1.54-10s-5.73-2.31-10.63-2.31c-10.89 0-21.49 9.45-21.49 27.19 0 11.77 5.73 19.54 16.98 19.54 3.19 0 8.26-1.3 8.26-1.3zM70.55 76.14c-6.47 0-11.43 2.08-11.43 2.08l-1.37 8.13s4.1-1.66 10.28-1.66c3.51 0 6.08.4 6.08 3.25 0 1.73-.31 2.37-.31 2.37s-2.77-.23-4.06-.23c-8.15 0-16.73 3.48-16.73 13.98 0 8.27 5.63 10.17 9.11 10.17 6.66 0 9.53-4.32 9.68-4.33l-.31 3.6h8.3l3.71-25.98c0-11.02-9.61-11.38-12.95-11.38zm2.02 21.16c.18 1.58-1 9.02-6.68 9.02-2.93 0-3.69-2.23-3.69-3.56 0-2.58 1.4-5.68 8.32-5.68 1.6 0 1.78.17 2.05.22zM92.33 114.04c2.13 0 14.27.54 14.27-12 0-11.72-11.24-9.4-11.24-14.1 0-2.35 1.83-3.1 5.18-3.1 1.33 0 6.45.43 6.45.43l1.19-8.33s-3.31-.74-8.7-.74C92.5 76.2 85.4 79 85.4 88.52c0 10.8 11.81 9.72 11.81 14.27 0 3.03-3.3 3.28-5.84 3.28-4.4 0-8.36-1.51-8.38-1.44l-1.26 8.25c.23.07 2.68 1.16 10.6 1.16zM279.85 68.67l-2.03 12.63s-3.55-4.91-9.11-4.91c-8.65 0-15.85 10.42-15.85 22.4 0 7.73 3.84 15.3 11.7 15.3 5.65 0 8.78-3.94 8.78-3.94l-.41 3.37h9.17l7.2-44.87-9.45.02zm-4.38 24.62c0 4.98-2.47 11.64-7.58 11.64-3.4 0-4.99-2.85-4.99-7.33 0-7.31 3.29-12.14 7.43-12.14 3.4 0 5.14 2.34 5.14 7.83zM19.47 113.56l5.74-33.87.84 33.87h6.5l12.13-33.87-5.37 33.87h9.65l7.44-44.93H41.47l-9.3 27.57-.49-27.57H17.91l-7.54 44.93h9.1zM164.82 113.62c2.74-15.62 3.25-28.3 9.8-25.98 1.15-6.04 2.26-8.38 3.51-10.94 0 0-.58-.12-1.82-.12-4.22 0-7.35 5.77-7.35 5.77l.84-5.3h-8.78l-5.89 36.57h9.69z" style="fill:#fff"/>
  <path d="M-623.53 76.14c-6.47 0-11.43 2.08-11.43 2.08l-1.37 8.13s4.1-1.66 10.28-1.66c3.52 0 6.08.4 6.08 3.25 0 1.73-.3 2.37-.3 2.37s-2.78-.23-4.06-.23c-8.16 0-16.73 3.48-16.73 13.98 0 8.27 5.62 10.17 9.1 10.17 6.66 0 9.53-4.32 9.68-4.33l-.3 3.6h8.3l3.7-25.98c0-11.02-9.61-11.38-12.95-11.38zm2.02 21.16c.18 1.58-1 9.02-6.67 9.02-2.93 0-3.7-2.23-3.7-3.56 0-2.58 1.4-5.68 8.32-5.68 1.6 0 1.78.17 2.05.22z" style="fill:#fff" transform="translate(847)"/>
  <path d="M-198.26 113.62c2.74-15.62 3.25-28.3 9.8-25.98 1.15-6.04 2.26-8.38 3.51-10.94 0 0-.59-.12-1.82-.12-4.22 0-7.35 5.77-7.35 5.77l.84-5.3h-8.78l-5.89 36.57h9.69z" style="fill:#fff" transform="translate(442.29)"/>
  <path d="M289.1 107.97a2.9 2.9 0 0 1 2.48 1.44 2.88 2.88 0 0 1-1.05 3.92 2.92 2.92 0 0 1-2.85 0 2.86 2.86 0 0 1 1.43-5.35m0 .47a2.43 2.43 0 0 0-2.07 1.2 2.4 2.4 0 0 0-.01 2.38 2.43 2.43 0 0 0 3.27.89 2.4 2.4 0 0 0 .88-3.27 2.4 2.4 0 0 0-2.06-1.2m-1.27 3.97v-3.08h1.06c.36 0 .63.03.79.09.16.05.29.15.38.3.1.14.15.29.15.45 0 .22-.08.42-.24.58a.93.93 0 0 1-.64.28c.1.05.2.1.26.17.12.12.28.32.46.6l.37.61h-.6l-.28-.48a2.5 2.5 0 0 0-.52-.72.64.64 0 0 0-.4-.1h-.29v1.3h-.5m.5-1.73h.6c.3 0 .49-.04.59-.13.1-.09.16-.2.16-.34a.4.4 0 0 0-.07-.25.46.46 0 0 0-.22-.16c-.09-.03-.25-.05-.5-.05h-.56v.93" style="fill:#fff"/>
</svg>
