<svg xmlns="http://www.w3.org/2000/svg" xml:space="preserve" viewBox="0 0 1000.05 323.65">
  <path d="M116.15 95.72H97.86L109.3 25h18.28zM182.44 26.72a45.07 45.07 0 0 0-16.4-3c-18.06 0-30.78 9.62-30.86 23.4-.15 10.15 9.1 15.8 16.03 19.18 7.07 3.46 9.48 5.72 9.48 8.8-.07 4.74-5.72 6.93-10.98 6.93-7.3 0-11.22-1.13-17.16-3.77l-2.41-1.13-2.56 15.88c4.29 1.95 12.2 3.69 20.4 3.76 19.18 0 31.68-9.48 31.82-24.15.08-8.05-4.81-14.22-15.35-19.26-6.4-3.24-10.3-5.42-10.3-8.73.07-3.01 3.3-6.1 10.52-6.1a31.07 31.07 0 0 1 13.63 2.72l1.65.75 2.49-15.28zM206.74 70.66l7.3-19.78c-.07.15 1.5-4.14 2.4-6.77l1.29 6.09s3.46 16.93 4.21 20.46h-15.2zM229.31 25h-14.14c-4.36 0-7.68 1.27-9.56 5.86l-27.16 64.86h19.19l3.83-10.61h23.48c.53 2.48 2.19 10.6 2.19 10.6h16.93L229.3 25zM82.58 25l-17.9 48.22-1.96-9.78C59.4 52.16 49.02 39.9 37.44 33.8l16.4 61.84h19.34L101.92 25H82.58z" style="fill:#00579f" transform="matrix(4.43 0 0 4.43 -81.17 -105.05)"/>
  <path d="M48.05 25H18.62l-.3 1.42c22.95 5.87 38.15 20.02 44.4 37.02l-6.4-32.5c-1.05-4.52-4.29-5.8-8.27-5.95z" style="fill:#faa61a" transform="matrix(4.43 0 0 4.43 -81.17 -105.05)"/>
</svg>
